<svg width="24" height="24" viewBox="0 0 24 24" fill="none" xmlns="http://www.w3.org/2000/svg">
<g clip-path="url(#clip0_1_635)">
<path d="M12.0018 5.84738C8.59678 5.84738 5.84879 8.59538 5.84879 12.0004C5.84879 15.4054 8.59678 18.1534 12.0018 18.1534C15.4068 18.1534 18.1548 15.4054 18.1548 12.0004C18.1548 8.59538 15.4068 5.84738 12.0018 5.84738ZM12.0018 15.9994C9.79978 15.9994 8.00278 14.2024 8.00278 12.0004C8.00278 9.79838 9.79978 8.00138 12.0018 8.00138C14.2038 8.00138 16.0008 9.79838 16.0008 12.0004C16.0008 14.2024 14.2038 15.9994 12.0018 15.9994ZM18.4068 4.16138C17.6118 4.16138 16.9698 4.80338 16.9698 5.59838C16.9698 6.39338 17.6118 7.03538 18.4068 7.03538C19.2018 7.03538 19.8438 6.39638 19.8438 5.59838C19.844 5.4096 19.807 5.22263 19.7349 5.04818C19.6627 4.87373 19.5569 4.71522 19.4234 4.58173C19.2899 4.44825 19.1314 4.34241 18.957 4.27028C18.7825 4.19815 18.5956 4.16114 18.4068 4.16138V4.16138ZM23.9958 12.0004C23.9958 10.3444 24.0108 8.70338 23.9178 7.05038C23.8248 5.13038 23.3868 3.42638 21.9828 2.02238C20.5758 0.615376 18.8748 0.180376 16.9548 0.0873762C15.2988 -0.00562382 13.6578 0.00937622 12.0048 0.00937622C10.3488 0.00937622 8.70778 -0.00562382 7.05479 0.0873762C5.13479 0.180376 3.43079 0.618376 2.02679 2.02238C0.619786 3.42938 0.184786 5.13038 0.091786 7.05038C-0.00121403 8.70638 0.013786 10.3474 0.013786 12.0004C0.013786 13.6534 -0.00121403 15.2974 0.091786 16.9504C0.184786 18.8704 0.622786 20.5744 2.02679 21.9784C3.43379 23.3854 5.13479 23.8204 7.05479 23.9134C8.71078 24.0064 10.3518 23.9914 12.0048 23.9914C13.6608 23.9914 15.3018 24.0064 16.9548 23.9134C18.8748 23.8204 20.5788 23.3824 21.9828 21.9784C23.3898 20.5714 23.8248 18.8704 23.9178 16.9504C24.0138 15.2974 23.9958 13.6564 23.9958 12.0004V12.0004ZM21.3558 19.0744C21.1368 19.6204 20.8728 20.0284 20.4498 20.4484C20.0268 20.8714 19.6218 21.1354 19.0758 21.3544C17.4978 21.9814 13.7508 21.8404 12.0018 21.8404C10.2528 21.8404 6.50279 21.9814 4.92479 21.3574C4.37879 21.1384 3.97079 20.8744 3.55079 20.4514C3.12779 20.0284 2.86379 19.6234 2.64479 19.0774C2.02079 17.4964 2.16179 13.7494 2.16179 12.0004C2.16179 10.2514 2.02079 6.50138 2.64479 4.92338C2.86379 4.37738 3.12779 3.96938 3.55079 3.54938C3.97379 3.12938 4.37879 2.86238 4.92479 2.64338C6.50279 2.01938 10.2528 2.16038 12.0018 2.16038C13.7508 2.16038 17.5008 2.01938 19.0788 2.64338C19.6248 2.86238 20.0328 3.12638 20.4528 3.54938C20.8758 3.97238 21.1398 4.37738 21.3588 4.92338C21.9828 6.50138 21.8418 10.2514 21.8418 12.0004C21.8418 13.7494 21.9828 17.4964 21.3558 19.0744Z" fill="#E61F5A"/>
</g>
<defs>
<clipPath id="clip0_1_635">
<rect width="24" height="24" fill="white"/>
</clipPath>
</defs>
</svg>
