<svg width="103" height="43" viewBox="0 0 103 43" fill="none" xmlns="http://www.w3.org/2000/svg">
<g clip-path="url(#clip0_1_559)">
<path d="M26.5555 3.79318L19.5869 5.25682L19.5547 27.9114C19.5547 32.0955 22.7413 34.8 26.9739 34.8C29.3236 34.8 31.0457 34.3705 31.9952 33.8614V28.4841C31.0778 28.85 26.5716 30.1545 26.5716 25.9864V15.9318H31.9952V9.91818H26.5716L26.5555 3.79318ZM40.895 12.0023L40.4605 9.91818H34.2805V34.2909H41.41V17.8886C43.0999 15.6932 45.9485 16.1227 46.8658 16.4091V9.91818C45.9002 9.58409 42.5688 8.96364 40.895 12.0023ZM55.7496 0.5L48.5718 2.01136V7.77045L55.7496 6.25909V0.5ZM7.22691 17.0932C7.22691 15.9955 8.16035 15.5659 9.65706 15.55C11.8297 15.55 14.5978 16.2023 16.7705 17.3636V10.7136C14.4047 9.79091 12.0389 9.425 9.67316 9.425C3.87941 9.425 0.0169067 12.4159 0.0169067 17.4114C0.0169067 25.2386 10.8802 23.9659 10.8802 27.3386C10.8802 28.6432 9.73753 29.0727 8.14425 29.0727C5.77847 29.0727 2.72066 28.1023 0.322688 26.8136V33.1773C2.97816 34.3068 5.66581 34.7841 8.12816 34.7841C14.0668 34.7841 18.1546 32.2705 18.1546 27.1795C18.1546 18.7636 7.22691 20.275 7.22691 17.0932V17.0932ZM103.001 22.3909C103.001 15.1523 99.4602 9.44091 92.6686 9.44091C85.8771 9.44091 81.741 15.1523 81.741 22.3432C81.741 30.8545 86.6174 34.7841 93.5699 34.7841C96.9818 34.7841 99.5407 34.0205 101.488 32.9545V27.6409C99.5407 28.6114 97.3036 29.2 94.4711 29.2C91.6869 29.2 89.2407 28.2295 88.9188 24.9205H102.904C102.936 24.5545 103.001 23.075 103.001 22.3909V22.3909ZM88.8544 19.7182C88.8544 16.5364 90.834 15.2 92.6204 15.2C94.3746 15.2 96.2415 16.5364 96.2415 19.7182H88.8544ZM70.6846 9.44091C67.8843 9.44091 66.0818 10.7455 65.0839 11.6523L64.7138 9.90227H58.4211V42.4841L65.5668 40.9886L65.5829 33.0023C66.6129 33.75 68.1418 34.7841 70.6363 34.7841C75.7541 34.7841 80.4213 31.0932 80.4213 22.1205C80.4374 13.9114 75.7058 9.44091 70.6846 9.44091V9.44091ZM68.9786 28.9295C67.3049 28.9295 66.3071 28.325 65.615 27.5932L65.5668 17.0932C66.3071 16.2818 67.3371 15.6932 68.9786 15.6932C71.5858 15.6932 73.3883 18.5886 73.3883 22.2795C73.4044 26.0818 71.6341 28.9295 68.9786 28.9295ZM48.5878 34.2909H55.7657V9.91818H48.5878V34.2909Z" fill="#737373"/>
</g>
<defs>
<clipPath id="clip0_1_559">
<rect width="103" height="42" fill="white" transform="translate(0 0.5)"/>
</clipPath>
</defs>
</svg>
