<svg width="149" height="142" viewBox="0 0 149 142" fill="none" xmlns="http://www.w3.org/2000/svg">
<g clip-path="url(#clip0_1_225)">
<path d="M132.19 54.5545C127.495 54.5545 123.363 56.5153 120.327 59.583C109.152 51.7714 94.0953 46.7429 77.411 46.2053L86.0818 6.73621L113.691 12.9981C113.691 19.8293 119.2 25.3955 125.961 25.3955C132.848 25.3955 138.388 19.6712 138.388 12.84C138.388 6.00882 132.879 0.284546 125.961 0.284546C121.141 0.284546 116.977 3.22575 114.911 7.24223L84.4228 0.411049C82.889 -8.66604e-05 81.3864 1.10682 80.9795 2.65648L71.4635 46.1736C54.9045 46.8694 40.0045 51.8979 28.7982 59.7095C25.7619 56.5153 21.4734 54.5545 16.778 54.5545C-0.626169 54.5545 -6.32323 78.1473 9.60976 86.2119C9.04631 88.7104 8.79589 91.3669 8.79589 94.0235C8.79589 120.526 38.3455 142 74.6251 142C111.061 142 140.611 120.526 140.611 94.0235C140.611 91.3669 140.329 88.5839 139.64 86.0854C155.26 77.9892 149.501 54.5545 132.19 54.5545V54.5545ZM34.8709 87.8881C34.8709 80.9304 40.3801 75.3326 47.298 75.3326C54.0593 75.3326 59.5686 80.8988 59.5686 87.8881C59.5686 94.7193 54.0593 100.285 47.298 100.285C40.4114 100.317 34.8709 94.7193 34.8709 87.8881V87.8881ZM101.952 117.458C90.5581 128.97 58.4104 128.97 47.0163 117.458C45.7642 116.351 45.7642 114.391 47.0163 113.126C48.1119 112.019 50.0526 112.019 51.1482 113.126C59.8503 122.139 88.7112 122.297 97.7889 113.126C98.8845 112.019 100.825 112.019 101.921 113.126C103.204 114.391 103.204 116.351 101.952 117.458ZM101.702 100.317C94.9404 100.317 89.4312 94.7509 89.4312 87.9197C89.4312 80.962 94.9404 75.3643 101.702 75.3643C108.588 75.3643 114.129 80.9304 114.129 87.9197C114.098 94.7193 108.588 100.317 101.702 100.317Z" fill="#737373"/>
</g>
<defs>
<clipPath id="clip0_1_225">
<rect width="149" height="142" fill="white"/>
</clipPath>
</defs>
</svg>
