<svg width="151" height="92" viewBox="0 0 151 92" fill="none" xmlns="http://www.w3.org/2000/svg">
<g clip-path="url(#clip0_1_222)">
<path d="M42.2331 33.3703C42.0615 38.7687 44.7592 41.1593 44.826 42.6775C44.7942 42.9865 44.6889 43.2834 44.5189 43.5434C44.3489 43.8034 44.1192 44.0189 43.8489 44.1719L40.7984 46.3075C40.4036 46.5843 39.9383 46.743 39.4567 46.7651C39.3542 46.7603 37.5048 47.2013 34.5759 40.6612C32.789 42.8919 30.5153 44.6842 27.9291 45.9009C25.3428 47.1175 22.5125 47.7262 19.6548 47.6803C15.775 47.8924 5.26044 45.478 5.80142 34.2831C5.4225 25.1594 13.9185 19.4916 22.7053 19.9707C24.3974 19.9755 27.853 20.0589 33.9039 21.4651V17.7422C34.5449 11.4357 30.4006 6.5425 23.2248 7.2766C22.6529 7.27898 18.6015 7.15742 12.3003 9.68623C10.5463 10.4918 10.3223 10.3584 9.73843 10.3584C7.9725 10.3584 8.69937 5.23877 9.03778 4.59048C10.2794 3.06509 17.5839 0.216907 24.7524 0.257425C29.5456 -0.16652 34.3131 1.31292 38.0244 4.37597C39.533 6.06363 40.6839 8.03958 41.4077 10.1845C42.1315 12.3294 42.4131 14.5988 42.2354 16.8556L42.2331 33.3703V33.3703ZM21.6376 41.0902C29.3663 40.9781 32.6384 36.3305 33.3843 33.8279C33.9706 31.4326 33.8729 29.9167 33.8729 27.2973C31.5683 26.7444 28.251 26.1414 24.445 26.1366C20.8345 25.8649 14.2403 27.4785 14.4976 33.8255C14.2021 37.8273 17.1477 41.3094 21.6376 41.0902V41.0902ZM62.3709 46.584C60.4977 46.7556 59.6255 45.4256 59.349 44.1123L47.4808 4.86934C47.2496 4.20675 47.0971 3.52271 47.0232 2.82437C46.9795 2.53646 47.0518 2.24294 47.2243 2.00831C47.3967 1.77369 47.6553 1.61714 47.9431 1.57307C48.0003 1.56354 47.4355 1.57307 53.2457 1.57307C55.3381 1.36333 56.0197 3.01027 56.2366 4.04468L64.7493 37.6104L72.6519 4.04468C72.7782 3.27722 73.3526 1.40623 75.7024 1.60406H79.7919C80.3091 1.56116 82.4396 1.48489 82.8138 4.07566L90.7784 38.0704L99.5652 4.07566C99.6795 3.55608 100.213 1.36572 102.587 1.60406H107.287C107.489 1.57307 108.752 1.411 108.538 3.64903C108.435 4.08996 109.35 1.10831 95.9666 44.1433C95.6925 45.4566 94.8179 46.7865 92.9447 46.6149H88.4905C85.8833 46.889 85.5092 44.3126 85.4687 44.0528L77.566 11.3689L69.754 44.0194C69.7159 44.2792 69.3417 46.8557 66.7321 46.5816H62.3709V46.584ZM127.546 47.9258C126.145 47.9282 119.462 47.8543 113.876 44.9966C113.32 44.761 112.846 44.3654 112.514 43.86C112.183 43.3546 112.009 42.7623 112.015 42.1579V39.5958C112.015 37.5818 113.492 37.9512 114.119 38.1919C116.512 39.1596 118.047 39.8937 120.985 40.48C129.719 42.2747 133.561 39.9318 134.503 39.4122C137.636 37.5508 137.884 33.2916 135.754 31.0822C133.256 28.9872 132.065 28.9085 123.092 26.077C121.986 25.7695 112.677 22.8332 112.656 13.5974C112.511 6.86665 118.626 0.207372 129.224 0.262191C132.243 0.259808 140.289 1.24654 142.467 3.98509C142.789 4.48323 142.949 5.06955 142.925 5.66302V8.07266C142.925 9.1309 142.539 9.66002 141.764 9.66002C139.927 9.45504 136.666 6.99774 130.048 7.09784C128.406 7.01204 120.542 7.31473 120.895 13.0492C120.792 17.5682 127.236 19.2628 127.973 19.4583C136.662 22.0729 139.567 22.5066 143.015 26.5084C147.1 31.8115 144.898 38.0203 144.052 39.7221C139.505 48.6575 127.746 47.9306 127.546 47.9258V47.9258ZM137.126 72.9184C120.437 85.2454 96.2096 91.807 75.5237 91.807C47.612 91.991 20.641 81.7268 -0.087408 63.0319C-1.64362 61.6281 -0.270913 59.7047 1.62133 60.7748C24.6153 73.9293 50.6493 80.8411 77.1395 80.8242C96.9216 80.7181 116.488 76.7046 134.715 69.0143C137.522 67.8226 139.903 70.8734 137.126 72.9184V72.9184ZM144.083 64.984C141.948 62.2383 129.955 63.7017 124.586 64.3428C122.968 64.5263 122.694 63.1225 124.16 62.0857C133.709 55.3716 149.393 57.295 151.194 59.5521C152.994 61.8092 150.706 77.5255 141.766 85.0333C140.394 86.194 139.081 85.5815 139.691 84.0561C141.702 78.9913 146.218 67.732 144.083 64.984Z" fill="#737373"/>
</g>
<defs>
<clipPath id="clip0_1_222">
<rect width="153" height="92" fill="white" transform="translate(-1)"/>
</clipPath>
</defs>
</svg>
