<svg width="139" height="99" viewBox="0 0 139 99" fill="none" xmlns="http://www.w3.org/2000/svg">
<g clip-path="url(#clip0_1_213)">
<path d="M0 1.67006H21.1215V58.7455C21.1215 67.7977 25.1938 73.1852 28.5059 75.4278C25.058 78.4634 14.6059 81.1435 6.73281 74.662C2.11758 70.8333 0 64.4612 0 58.5267V1.67006ZM131.914 49.119V43.1024H138.376V22.0991H131.29C128.548 9.43691 117.39 0.0291748 104.06 0.0291748C88.6939 0.0291748 76.1785 12.6093 76.1785 28.1156V77.1234C80.5223 77.7524 85.7891 77.0413 90.2143 73.2946C94.8566 69.4659 96.9471 63.1212 96.9471 57.1593V55.327H107.481V34.3236H96.9471V27.9515C96.9471 18.4891 111.119 18.4891 111.119 27.9515V49.0369C111.119 64.5159 123.607 77.1234 139 77.1234V56.2021C135.063 56.2021 131.914 53.0024 131.914 49.119V49.119ZM52.0164 22.0444V52.9477C52.0164 57.1593 45.5551 57.1593 45.5551 52.9477V22.0444H24.7051V58.3352C24.7051 64.8441 26.877 73.1032 36.9219 75.8107C46.9668 78.4908 52.7223 72.9118 52.7223 72.9118C52.1521 76.5764 48.7857 79.2839 43.2475 79.8308C39.0395 80.2684 33.6912 78.8463 31.0307 77.6977V96.9234C37.8449 98.9745 45.0121 99.6035 52.0978 98.2087C64.8848 95.7201 72.9479 84.9723 72.9479 70.6419V21.9076H52.0164V22.0444V22.0444Z" fill="#737373"/>
</g>
<defs>
<clipPath id="clip0_1_213">
<rect width="139" height="99" fill="white"/>
</clipPath>
</defs>
</svg>
