<svg width="49" height="48" viewBox="0 0 49 48" fill="none" xmlns="http://www.w3.org/2000/svg">
<g clip-path="url(#clip0_1_463)">
<g clip-path="url(#clip1_1_463)">
<path d="M43.5886 12.5255H38.519V7.45592C38.519 6.55955 38.1629 5.6999 37.5291 5.06608C36.8952 4.43225 36.0356 4.07617 35.1392 4.07617H14.8608C13.9644 4.07617 13.1047 4.43225 12.4709 5.06608C11.8371 5.6999 11.481 6.55955 11.481 7.45592V12.5255H6.41139C5.06684 12.5255 3.77736 13.0597 2.82662 14.0104C1.87589 14.9611 1.34177 16.2506 1.34177 17.5952V41.2534C1.34177 42.1497 1.69785 43.0094 2.33167 43.6432C2.9655 44.2771 3.82515 44.6331 4.72151 44.6331H45.2785C46.1748 44.6331 47.0345 44.2771 47.6683 43.6432C48.3021 43.0094 48.6582 42.1497 48.6582 41.2534V17.5952C48.6582 16.2506 48.1241 14.9611 47.1734 14.0104C46.2226 13.0597 44.9331 12.5255 43.5886 12.5255ZM14.8608 7.45592H35.1392V12.5255H14.8608V7.45592ZM45.2785 41.2534H4.72151V26.0445H18.2405V34.4939H31.7595V26.0445H45.2785V41.2534ZM21.6202 26.0445H28.3797V31.1141H21.6202V26.0445ZM4.72151 22.6648V17.5952C4.72151 17.147 4.89955 16.7172 5.21647 16.4002C5.53338 16.0833 5.9632 15.9053 6.41139 15.9053H43.5886C44.0368 15.9053 44.4666 16.0833 44.7835 16.4002C45.1004 16.7172 45.2785 17.147 45.2785 17.5952V22.6648H4.72151Z" fill="#00A0C1"/>
</g>
</g>
<defs>
<clipPath id="clip0_1_463">
<rect width="48" height="48" fill="white" transform="translate(0.5)"/>
</clipPath>
<clipPath id="clip1_1_463">
<rect width="48" height="40.7089" fill="white" transform="translate(1 4)"/>
</clipPath>
</defs>
</svg>
