<svg width="49" height="48" viewBox="0 0 49 48" fill="none" xmlns="http://www.w3.org/2000/svg">
<g clip-path="url(#clip0_1_437)">
<g clip-path="url(#clip1_1_437)">
<path d="M24.8406 22.8025C29.1448 22.8025 32.4925 19.3071 32.4925 15.0173C32.4925 10.7276 28.9854 7.39111 24.6812 7.39111C20.377 7.39111 17.0293 10.8865 17.0293 15.0173C17.0293 19.3071 20.5364 22.8025 24.8406 22.8025ZM24.6812 10.5687C24.8406 10.5687 24.8406 10.5687 24.6812 10.5687C27.2318 10.5687 29.3042 12.6342 29.3042 15.1762C29.3042 17.7183 27.2318 19.6249 24.6812 19.6249C22.1306 19.6249 20.2176 17.5594 20.2176 15.1762C20.2176 12.6342 22.29 10.5687 24.6812 10.5687V10.5687Z" fill="#00A0C1"/>
<path d="M48.434 21.8487C45.4051 19.1477 41.4197 17.7178 37.2749 17.8767H35.9996C35.6808 19.1477 35.2025 20.2599 34.5649 21.2132C35.5214 21.0543 36.3184 21.0543 37.2749 21.0543C40.3038 20.8954 43.3327 21.8487 45.7239 23.5964V35.0357H48.9122V22.3253L48.434 21.8487Z" fill="#00A0C1"/>
<path d="M33.6084 7.70826C34.4055 5.8017 36.6373 4.84842 38.7097 5.64282C40.6226 6.43722 41.5791 8.66154 40.782 10.727C40.1444 12.1569 38.7097 13.1102 37.2749 13.1102C36.9561 13.1102 36.4779 13.1102 36.159 12.9513C36.3184 13.7457 36.3184 14.5401 36.3184 15.1756V16.1289C36.6373 16.1289 36.9561 16.2878 37.2749 16.2878C41.2603 16.2878 44.4486 13.1102 44.4486 9.29706C44.4486 5.32506 41.2603 2.14746 37.4343 2.14746C34.8837 2.14746 32.6519 3.4185 31.3766 5.64282C32.1737 6.11946 32.9707 6.75498 33.6084 7.70826V7.70826Z" fill="#00A0C1"/>
<path d="M15.4351 21.3724C14.7975 20.4191 14.3192 19.3069 14.0004 18.0359H12.7251C8.58031 17.877 4.59495 19.3069 1.56607 21.849L1.08783 22.3257V35.0361H4.27612V23.5967C6.82675 21.849 9.69621 20.8957 12.7251 21.0546C13.6816 21.0546 14.6381 21.2135 15.4351 21.3724Z" fill="#00A0C1"/>
<path d="M12.7251 16.1295C13.044 16.1295 13.3628 16.1295 13.6816 15.9706V15.0174C13.6816 14.223 13.6816 13.4286 13.841 12.793C13.5222 12.9519 13.044 12.9519 12.7251 12.9519C10.6527 12.9519 8.89917 11.2042 8.89917 9.1388C8.89917 7.07336 10.6527 5.32568 12.7251 5.32568C14.3193 5.32568 15.754 6.27896 16.3917 7.70888C17.0293 6.91448 17.9858 6.12008 18.7829 5.48456C16.7105 2.14809 12.4063 1.03593 9.05859 3.10136C5.71088 5.1668 4.59498 9.45656 6.66737 12.793C7.94269 14.8585 10.1745 16.1295 12.7251 16.1295V16.1295Z" fill="#00A0C1"/>
<path d="M37.9126 31.3817L37.5938 30.9051C34.4055 27.4097 29.9419 25.3443 25.1595 25.5032C20.377 25.3443 15.754 27.4097 12.5657 30.9051L12.2469 31.3817V43.4566C12.2469 44.8865 13.3628 46.1576 14.9569 46.1576H35.362C36.7967 46.1576 38.072 44.8865 38.072 43.4566V31.3817H37.9126ZM34.7243 42.98H15.4352V32.4939C17.9858 29.9518 21.4929 28.6808 25.1595 28.6808C28.6666 28.5219 32.1737 29.9518 34.7243 32.4939V42.98Z" fill="#00A0C1"/>
</g>
</g>
<defs>
<clipPath id="clip0_1_437">
<rect width="48" height="48" fill="white" transform="translate(0.5)"/>
</clipPath>
<clipPath id="clip1_1_437">
<rect width="48" height="44.2105" fill="white" transform="translate(1 2)"/>
</clipPath>
</defs>
</svg>
