<svg width="37" height="37" viewBox="0 0 37 37" fill="none" xmlns="http://www.w3.org/2000/svg">
<rect width="37" height="37" rx="8" fill="#6B7280"/>
<path opacity="0.5" d="M26.278 26.278C26.668 26.668 27.305 26.671 27.662 26.25C29.4982 24.0856 30.5042 21.3384 30.5 18.5C30.5 11.873 25.127 6.5 18.5 6.5C11.873 6.5 6.5 11.873 6.5 18.5C6.5 21.454 7.567 24.159 9.338 26.25C9.695 26.671 10.331 26.669 10.722 26.278C11.112 25.888 11.108 25.258 10.758 24.83C9.29461 23.0454 8.49647 20.8079 8.5 18.5C8.5 12.977 12.977 8.5 18.5 8.5C24.023 8.5 28.5 12.977 28.5 18.5C28.5035 20.8079 27.7054 23.0454 26.242 24.83C25.892 25.257 25.888 25.888 26.278 26.278Z" fill="white"/>
<path d="M12.5 28.895V28.5C12.5 26.9087 13.1321 25.3826 14.2574 24.2574C15.3826 23.1321 16.9087 22.5 18.5 22.5C20.0913 22.5 21.6174 23.1321 22.7426 24.2574C23.8679 25.3826 24.5 26.9087 24.5 28.5V28.895C22.6765 29.9497 20.6065 30.5034 18.5 30.5C16.314 30.5 14.265 29.916 12.5 28.895ZM21.5 17C21.5 15.067 21 13.5 18.5 13.5C16 13.5 15.5 15.067 15.5 17C15.5 18.933 16.843 20.5 18.5 20.5C20.157 20.5 21.5 18.933 21.5 17Z" fill="white"/>
</svg>
