<svg width="37" height="37" viewBox="0 0 37 37" fill="none" xmlns="http://www.w3.org/2000/svg">
<rect width="37" height="37" rx="8" fill="#6B7280"/>
<path opacity="0.5" d="M8.5 17.5C8.5 17.2348 8.60536 16.9804 8.79289 16.7929C8.98043 16.6054 9.23478 16.5 9.5 16.5H27.5C27.7652 16.5 28.0196 16.6054 28.2071 16.7929C28.3946 16.9804 28.5 17.2348 28.5 17.5V19.5C28.5 19.7652 28.3946 20.0196 28.2071 20.2071C28.0196 20.3946 27.7652 20.5 27.5 20.5H9.5C9.23478 20.5 8.98043 20.3946 8.79289 20.2071C8.60536 20.0196 8.5 19.7652 8.5 19.5V17.5Z" fill="white"/>
<path opacity="0.3" d="M8.5 24.5C8.5 24.2348 8.60536 23.9804 8.79289 23.7929C8.98043 23.6054 9.23478 23.5 9.5 23.5H27.5C27.7652 23.5 28.0196 23.6054 28.2071 23.7929C28.3946 23.9804 28.5 24.2348 28.5 24.5V26.5C28.5 26.7652 28.3946 27.0196 28.2071 27.2071C28.0196 27.3946 27.7652 27.5 27.5 27.5H9.5C9.23478 27.5 8.98043 27.3946 8.79289 27.2071C8.60536 27.0196 8.5 26.7652 8.5 26.5V24.5Z" fill="white"/>
<path d="M8.5 10.5C8.5 10.2348 8.60536 9.98043 8.79289 9.79289C8.98043 9.60536 9.23478 9.5 9.5 9.5H27.5C27.7652 9.5 28.0196 9.60536 28.2071 9.79289C28.3946 9.98043 28.5 10.2348 28.5 10.5V12.5C28.5 12.7652 28.3946 13.0196 28.2071 13.2071C28.0196 13.3946 27.7652 13.5 27.5 13.5H9.5C9.23478 13.5 8.98043 13.3946 8.79289 13.2071C8.60536 13.0196 8.5 12.7652 8.5 12.5V10.5Z" fill="white"/>
</svg>
