<svg width="109" height="40" viewBox="0 0 109 40" fill="none" xmlns="http://www.w3.org/2000/svg">
<path fill-rule="evenodd" clip-rule="evenodd" d="M0 20C0 31.046 8.954 40 20 40C31.046 40 40 31.046 40 20C40 8.954 31.046 0 20 0C8.954 0 0 8.954 0 20ZM20 36C12.736 36 6.679 30.837 5.296 23.98C4.97 22.358 6.343 21 8 21H32C33.657 21 35.031 22.357 34.704 23.98C33.32 30.838 27.264 36 20 36Z" fill="#2563EB"/>
<path d="M55.528 26.5697V15.8417H52V13.9697H61.108V15.8417H57.472V26.5697H55.528Z" fill="#0F172A"/>
<path d="M83.084 26.57V13.97H88.43C89.174 13.97 89.846 14.15 90.446 14.51C91.0489 14.8489 91.547 15.3471 91.886 15.95C92.246 16.562 92.426 17.252 92.426 18.02C92.426 18.8 92.246 19.502 91.886 20.126C91.5458 20.742 91.049 21.2573 90.446 21.62C89.846 21.98 89.174 22.16 88.43 22.16H85.784V26.57H83.084ZM85.748 19.73H88.124C88.412 19.73 88.67 19.658 88.898 19.514C89.126 19.358 89.306 19.154 89.438 18.902C89.585 18.6381 89.6596 18.34 89.654 18.038C89.654 17.714 89.582 17.432 89.438 17.192C89.3173 16.952 89.1297 16.7519 88.898 16.616C88.6662 16.4709 88.3974 16.3959 88.124 16.4H85.748V19.73ZM106.227 26.57V13.25H108.783V26.57H106.227Z" fill="#2563EB"/>
<path fill-rule="evenodd" clip-rule="evenodd" d="M95.906 26.1019C96.542 26.5339 97.256 26.7499 98.048 26.7499C98.492 26.7499 98.912 26.6839 99.308 26.5519C99.6866 26.4171 100.044 26.2292 100.37 25.9939C100.632 25.8023 100.868 25.5778 101.072 25.3259V26.5699H103.646V17.0479H101.108V18.2959C100.922 18.0444 100.705 17.8185 100.46 17.6239C100.156 17.3752 99.808 17.1859 99.434 17.0659C99.0245 16.9175 98.5915 16.8443 98.156 16.8499C97.328 16.8499 96.59 17.0659 95.942 17.4979C95.294 17.9179 94.778 18.4999 94.394 19.2439C94.022 19.9759 93.836 20.8219 93.836 21.7819C93.836 22.7419 94.022 23.5939 94.394 24.3379C94.766 25.0819 95.27 25.6699 95.906 26.1019ZM100.01 24.1939C99.65 24.4219 99.23 24.5359 98.75 24.5359C98.282 24.5359 97.868 24.4219 97.508 24.1939C97.1513 23.956 96.8653 23.6265 96.68 23.2399C96.476 22.8199 96.374 22.3339 96.374 21.7819C96.374 21.2419 96.476 20.7679 96.68 20.3599C96.884 19.9519 97.16 19.6339 97.508 19.4059C97.868 19.1659 98.282 19.0459 98.75 19.0459C99.23 19.0459 99.65 19.1659 100.01 19.4059C100.37 19.6339 100.646 19.9519 100.838 20.3599C101.042 20.7679 101.144 21.2419 101.144 21.7819C101.144 22.3339 101.042 22.8199 100.838 23.2399C100.66 23.6314 100.373 23.9629 100.01 24.1939Z" fill="#2563EB"/>
<path fill-rule="evenodd" clip-rule="evenodd" d="M76.322 23.1971L78.917 26.5701H81.185L77.523 21.7831L80.861 17.1201H78.665L76.503 20.4541L73.949 17.1201H71.609L75.261 21.8301L71.627 26.5701H73.823L76.323 23.1971H76.322ZM62.738 26.1021C63.3702 26.5294 64.117 26.7553 64.88 26.7501C65.336 26.7501 65.768 26.6781 66.176 26.5341C66.596 26.3901 66.974 26.1981 67.31 25.9581C67.6451 25.733 67.9376 25.4503 68.174 25.1231V26.5701H70.046V17.1201H68.174V18.5701C67.9841 18.2566 67.7404 17.979 67.454 17.7501C67.1428 17.4796 66.7821 17.2718 66.392 17.1381C65.9576 16.9898 65.501 16.9168 65.042 16.9221C64.214 16.9221 63.464 17.1321 62.792 17.5521C62.132 17.9721 61.604 18.5541 61.208 19.2981C60.824 20.0301 60.632 20.8701 60.632 21.8181C60.632 22.7541 60.824 23.5941 61.208 24.3381C61.592 25.0821 62.102 25.6701 62.738 26.1021ZM66.86 24.6261C66.428 24.9021 65.93 25.0401 65.366 25.0401C64.8442 25.0487 64.3313 24.9048 63.89 24.6261C63.462 24.3412 63.1148 23.9506 62.882 23.4921C62.642 23.0001 62.522 22.4421 62.522 21.8181C62.522 21.2061 62.642 20.6601 62.882 20.1801C63.134 19.7001 63.47 19.3221 63.89 19.0461C64.3313 18.7675 64.8442 18.6236 65.366 18.6321C65.93 18.6321 66.428 18.7701 66.86 19.0461C67.292 19.3221 67.628 19.7001 67.868 20.1801C68.12 20.6601 68.246 21.2061 68.246 21.8181C68.246 22.4421 68.12 23.0001 67.868 23.4921C67.628 23.9721 67.292 24.3501 66.86 24.6261Z" fill="#0F172A"/>
</svg>
