<svg width="244" height="31" viewBox="0 0 244 31" fill="none" xmlns="http://www.w3.org/2000/svg">
<path fill-rule="evenodd" clip-rule="evenodd" d="M208.604 17.7766C201.629 18.7462 195.121 19.512 181.371 20.9781C165.25 22.6979 158.44 23.2948 151.327 23.6131C148.739 23.729 148.081 23.8652 145.607 24.7983C132.432 29.7694 107.472 32.1164 85.1262 30.4869C62.2955 28.8215 40.7087 24.9594 17.1749 18.3283C8.8796 15.9914 0.234092 12.4452 0.0128147 11.2888C-0.0446826 10.9923 0.050275 11.0211 1.16625 11.6436C10.2465 16.7066 44.419 24.3454 68.9434 26.7936C89.5971 28.8558 102.265 29.0892 117.573 27.6932C125.768 26.9445 138.874 24.757 139.44 24.0419C139.505 23.9609 139.486 23.9212 139.39 23.9368C138.465 24.0886 127.313 23.7259 122.97 23.4022C108.438 22.3213 97.9481 20.0209 89.7417 16.1152C76.418 9.77285 83.3839 1.14887 102.637 0.151226C116.658 -0.57561 131.205 1.33175 143.95 5.56748C155.732 9.48414 159.581 15.1595 153.937 20.2925L153.188 20.9727L153.795 20.968C156.131 20.9478 167.128 19.9548 179.241 18.67C201.756 16.2809 210.306 15.1533 226.307 12.4615C234.9 11.0156 235.909 10.8678 237.681 10.7923C238.993 10.7269 240.302 10.6187 241.606 10.4678C243.253 10.2662 243.48 10.26 242.95 10.4312C242.6 10.544 240.92 11.1417 239.217 11.7596C235.179 13.2242 234.685 13.3705 231.607 14.0187C228.633 14.6451 214.381 16.9735 208.604 17.7766V17.7766ZM243.731 10.0491C243.818 9.99775 243.932 9.98296 243.983 10.0172C244.035 10.0507 243.963 10.0919 243.824 10.1098C243.67 10.1285 243.633 10.1044 243.731 10.0483V10.0491ZM149.475 20.2871C157.633 15.5727 153.971 10.9184 138.756 6.66084C128.602 3.81809 118.593 2.40411 108.054 2.32162C88.4071 2.16753 78.8024 8.12852 89.4795 13.8498C99.944 19.4567 118.223 22.0652 143.084 21.5003C147.059 21.41 147.763 21.2762 149.475 20.2871V20.2871Z" fill="#76A9FA"/>
</svg>
