<svg width="418" height="42" viewBox="0 0 418 42" fill="none" xmlns="http://www.w3.org/2000/svg">
<g clip-path="url(#clip0_0_259)">
<path d="M203.371 0.915924C177.358 -1.16208 126.685 2.87892 78.641 10.8619L67.3 12.7489C35.421 18.0619 18.2 21.7659 6.004 25.9339C1.244 27.5609 0.828005 27.7779 0.874005 28.6099C0.944005 29.8239 1.702 29.7309 10.469 27.4339C19.541 25.0569 27.619 23.5139 49.715 19.9379C123.565 7.98592 157.869 4.49192 195.942 5.04592C203.403 5.15392 215.192 6.74192 215.112 7.62792C215.005 8.81092 207.238 11.9379 189.362 17.9939C167.37 25.4439 153.932 30.5279 152.661 31.8779C150.488 34.1859 152.459 36.2849 157.103 36.6119C159.757 36.7989 160.366 36.7689 172.696 35.8319C208.097 33.1459 230.64 32.3439 261.061 32.6889C307.388 33.2149 336.782 34.9189 391.849 40.2729C411.636 42.1969 412.663 42.2529 416.406 41.6049L416.472 41.5939C417.673 41.3909 418.002 39.7689 416.871 39.2589C413.96 37.9489 411.978 37.6549 394.823 35.9979C337.314 30.4419 306.952 28.6379 262.764 28.1559C239.525 27.9019 229.147 28.0399 212.137 28.8299C200.508 29.3699 169.766 31.3239 165.441 31.7969C163.082 32.0559 173.574 28.1719 191.945 21.9869C215.184 14.1619 219.879 11.8379 220.249 7.98192C220.666 3.63392 216.72 1.98192 203.371 0.915924Z" fill="#C3DDFD"/>
</g>
<defs>
<clipPath id="clip0_0_259">
<rect width="418" height="42" fill="white"/>
</clipPath>
</defs>
</svg>
