<svg width="281" height="40" viewBox="0 0 281 40" fill="none" xmlns="http://www.w3.org/2000/svg">
<path fill-rule="evenodd" clip-rule="evenodd" d="M240.172 22.994C232.165 24.24 224.695 25.224 208.912 27.108C190.406 29.318 182.589 30.085 174.425 30.494C171.454 30.643 170.698 30.818 167.859 32.017C152.735 38.405 124.084 41.421 98.4339 39.327C72.2269 37.187 47.4479 32.224 20.4339 23.703C10.9119 20.7 0.987948 16.143 0.733948 14.657C0.667948 14.276 0.776948 14.313 2.05795 15.113C12.4809 21.619 51.7069 31.435 79.8579 34.581C103.566 37.231 118.107 37.531 135.679 35.737C145.086 34.775 160.13 31.964 160.78 31.045C160.854 30.941 160.833 30.89 160.722 30.91C159.66 31.105 146.859 30.639 141.874 30.223C125.193 28.834 113.152 25.878 103.732 20.859C88.4379 12.709 96.4339 1.62696 118.534 0.344964C134.629 -0.589036 151.327 1.86196 165.957 7.30496C179.481 12.338 183.899 19.631 177.42 26.227L176.561 27.101L177.258 27.095C179.939 27.069 192.562 25.793 206.466 24.142C232.311 21.072 242.125 19.623 260.493 16.164C270.356 14.306 271.514 14.116 273.548 14.019C275.055 13.9349 276.558 13.7958 278.054 13.602C279.945 13.343 280.205 13.335 279.597 13.555C279.195 13.7 277.267 14.468 275.312 15.262C270.677 17.144 270.11 17.332 266.576 18.165C263.162 18.97 246.803 21.962 240.172 22.994V22.994ZM280.493 13.064C280.593 12.998 280.724 12.979 280.783 13.023C280.842 13.066 280.759 13.119 280.6 13.142C280.423 13.166 280.381 13.135 280.493 13.063V13.064ZM172.299 26.22C181.663 20.162 177.46 14.181 159.995 8.70996C148.339 5.05696 136.85 3.23996 124.752 3.13396C102.2 2.93596 91.1749 10.596 103.431 17.948C115.443 25.153 136.425 28.505 164.962 27.779C169.525 27.663 170.334 27.491 172.299 26.22V26.22Z" fill="#76A9FA"/>
</svg>
