<svg width="158" height="48" viewBox="0 0 158 48" fill="none" xmlns="http://www.w3.org/2000/svg">
<g clip-path="url(#clip0_0_265)">
<path d="M55.423 18.1781V15.6871H66.38V18.1781H62.304V32.0531H59.47V18.1781H55.423ZM73.521 22.7551C73.082 22.6771 72.6369 22.6383 72.191 22.6391C70.371 22.6391 69.301 23.8271 69.301 26.2311V32.0241H66.611V20.5541H69.242V22.1761H69.3C69.82 21.1911 70.977 20.1761 72.51 20.1761C72.943 20.1761 73.232 20.2061 73.521 20.2351V22.7551ZM86.387 32.0241H83.785V30.5761H83.727C82.947 31.5611 81.703 32.4591 79.795 32.4591C77.222 32.4591 74.302 30.4021 74.302 26.2891C74.302 22.6391 76.875 20.2061 79.997 20.2061C81.905 20.2061 83.062 21.2191 83.757 22.1171H83.814V20.5531H86.416V32.0241H86.386H86.387ZM80.489 30.0841C82.252 30.0841 83.9 28.5481 83.9 26.3461C83.9 24.0291 82.397 22.4941 80.518 22.4941C78.148 22.4941 77.019 24.4061 77.019 26.2891C77.019 28.2001 78.119 30.0831 80.489 30.0831V30.0841ZM89.51 20.5531H92.17V22.0021H92.227C93.123 20.6981 94.453 20.1771 95.725 20.1771C98.096 20.1771 100.178 21.7411 100.178 25.4201V32.0241H97.488V25.5641C97.488 23.5941 96.564 22.5521 95.031 22.5521C93.354 22.5521 92.198 23.7401 92.198 25.9701V32.0531H89.51V20.5531H89.511H89.51ZM108.302 23.5081C108.186 22.6681 107.55 22.1181 106.769 22.1181C105.844 22.1181 105.324 22.6971 105.324 23.3341C105.324 24.0291 105.671 24.5221 107.665 25.1881C110.123 25.9701 110.99 27.2451 110.99 28.8671C110.99 30.9811 109.4 32.4591 106.769 32.4591C104.023 32.4591 102.664 30.9521 102.461 28.8091H104.948C105.063 29.7651 105.642 30.4891 106.827 30.4891C107.839 30.4891 108.417 29.8521 108.417 29.0691C108.417 28.2011 107.926 27.6501 106.018 27.0131C103.878 26.3181 102.779 25.2461 102.779 23.4501C102.779 21.5671 104.254 20.1771 106.682 20.1771C109.14 20.1771 110.441 21.6251 110.73 23.5071H108.302V23.5081ZM113.332 15.2811H116.31V18.0041H113.332V15.2811ZM113.477 20.5531H116.165V32.0531H113.477V20.5531ZM124.463 23.5081C124.347 22.6681 123.711 22.1181 122.93 22.1181C122.005 22.1181 121.485 22.6971 121.485 23.3341C121.485 24.0291 121.832 24.5221 123.827 25.1881C126.284 25.9701 127.151 27.2451 127.151 28.8671C127.151 30.9811 125.561 32.4591 122.93 32.4591C120.184 32.4591 118.825 30.9521 118.623 28.8091H121.109C121.225 29.7651 121.803 30.4891 122.988 30.4891C124 30.4891 124.578 29.8521 124.578 29.0691C124.578 28.2011 124.087 27.6501 122.179 27.0131C120.039 26.3181 118.941 25.2461 118.941 23.4501C118.941 21.5671 120.415 20.1771 122.844 20.1771C125.301 20.1771 126.602 21.6251 126.891 23.5071H124.463V23.5081ZM128.308 20.5531H129.753V16.8751H132.442V20.5531H135.304V22.8131H132.413V27.9401C132.413 29.5041 132.905 29.9391 134.003 29.9391C134.466 29.9391 134.986 29.8521 135.391 29.7361V31.9081C134.784 32.0821 134.032 32.1691 133.367 32.1691C130.505 32.1691 129.753 30.4311 129.753 28.0851V22.8131H128.308V20.5531ZM142.619 20.1771C146.204 20.1771 148.748 22.8131 148.748 26.2891C148.748 29.6781 146.175 32.4591 142.619 32.4591C139.121 32.4591 136.49 29.7651 136.49 26.2891C136.49 22.7261 139.15 20.1771 142.619 20.1771ZM142.619 30.0541C144.643 30.0541 146.03 28.4321 146.03 26.2891C146.03 24.2611 144.729 22.5521 142.619 22.5521C140.566 22.5521 139.207 24.1451 139.207 26.2891C139.207 28.4901 140.769 30.0541 142.619 30.0541ZM156.671 22.6391C154.849 22.6391 153.78 23.8271 153.78 26.2311V32.0241H151.091V20.5541H153.722V22.1761H153.78C154.3 21.1911 155.456 20.1761 156.989 20.1761C157.422 20.1761 157.711 20.2061 158.001 20.2351V22.7551C157.562 22.6771 157.117 22.6382 156.671 22.6391ZM20.816 37.7311C20.4477 37.7305 20.0946 37.5839 19.8344 37.3232C19.5741 37.0626 19.428 36.7094 19.428 36.3411V11.3701C19.4284 11.0958 19.5101 10.8278 19.6626 10.5999C19.8151 10.372 20.0317 10.1943 20.2851 10.0893C20.5384 9.98425 20.8172 9.95658 21.0863 10.0098C21.3553 10.0629 21.6026 10.1946 21.797 10.3881C22.057 10.6481 22.203 11.0021 22.203 11.3701V36.3401C22.203 37.0931 21.567 37.7301 20.816 37.7301V37.7311ZM15.033 25.2471H8.38297C8.01484 25.2463 7.66206 25.0995 7.40203 24.8389C7.14201 24.5783 6.99597 24.2252 6.99597 23.8571C6.99597 23.0741 7.60297 22.4661 8.38397 22.4661H15.034C15.4026 22.4661 15.7562 22.6125 16.0169 22.8732C16.2775 23.1339 16.424 23.4874 16.424 23.8561C16.424 24.2247 16.2775 24.5783 16.0169 24.8389C15.7562 25.0996 15.4026 25.2461 15.034 25.2461V25.2471H15.033ZM33.276 25.2471H26.598C26.2297 25.2465 25.8766 25.0999 25.6164 24.8392C25.3561 24.5786 25.21 24.2254 25.21 23.8571C25.21 23.0741 25.817 22.4661 26.598 22.4661H33.248C33.6161 22.4669 33.9689 22.6137 34.2289 22.8742C34.4889 23.1348 34.635 23.4879 34.635 23.8561C34.635 24.6381 34.028 25.2461 33.276 25.2461V25.2471Z" fill="#374151"/>
<path d="M20.816 44.712C9.338 44.712 0 35.356 0 23.856C0 12.356 9.338 3 20.816 3C32.294 3 41.632 12.356 41.632 23.856C41.632 35.356 32.294 44.712 20.816 44.712ZM20.816 5.781C10.871 5.781 2.776 13.891 2.776 23.856C2.776 33.821 10.871 41.931 20.816 41.931C30.762 41.931 38.856 33.821 38.856 23.856C38.856 13.891 30.763 5.781 20.817 5.781H20.816Z" fill="#374151"/>
</g>
<defs>
<clipPath id="clip0_0_265">
<rect width="158" height="48" fill="white"/>
</clipPath>
</defs>
</svg>
