<svg width="105" height="48" viewBox="0 0 105 48" fill="none" xmlns="http://www.w3.org/2000/svg">
<path fill-rule="evenodd" clip-rule="evenodd" d="M18 4L0 10V29.5L6 31.5V37L24 43V11.5L18 13.5V4ZM8 32.167L18 35.5V15.608L22 14.275V40.225L8 35.56V32.167Z" fill="#374151"/>
<path d="M42.9 20.4501V31.0001H47.346V20.4501H50.876V17.0581H39.39V20.4511H42.9V20.4501ZM53.105 25.2481C53.105 29.2261 55.405 31.2541 59.481 31.2541C63.381 31.2541 65.877 29.4011 65.877 25.2091V17.0591H61.43V25.0531C61.43 26.8861 61.04 27.7831 59.48 27.7831C57.9 27.7831 57.51 26.8861 57.51 25.0731V17.0581H53.104V25.2481H53.105Z" fill="#374151"/>
<path fill-rule="evenodd" clip-rule="evenodd" d="M68.965 31.0001V17.0581H74.523C78.54 17.0581 80.256 18.8521 80.256 21.8351V21.9131C80.256 24.8191 78.326 26.4571 74.718 26.4571H73.372V31.0001H68.965ZM74.288 23.4931H73.372V20.3531H74.308C75.458 20.3531 76.063 20.7831 76.063 21.8551V21.9331C76.063 22.9661 75.458 23.4931 74.288 23.4931Z" fill="#374151"/>
<path d="M82.563 31.0001V17.0581H86.99V27.5881H92.06V31.0001H82.563ZM94.562 17.0581V31.0001H104.78V27.6071H98.969V25.5211H103.337V22.4211H98.969V20.4511H104.468V17.0581H94.562Z" fill="#374151"/>
</svg>
